<svg xmlns="http://www.w3.org/2000/svg" xmlns:xlink="http://www.w3.org/1999/xlink" width="81" height="29" viewBox="0 0 81 29">
  <defs>
    <clipPath id="clip-Logo">
      <rect width="81" height="29"/>
    </clipPath>
  </defs>
  <g id="Logo" clip-path="url(#clip-Logo)">
    <g id="layer1" transform="translate(-56.624 -137.427)">
      <g id="text833" transform="translate(56.312 136.713)">
        <path id="rect862" d="M56.312,137.024v29.818H86.13V137.024Zm3.217,8.179,6.122,5.291,6.061-5.291v12.774H69.129v-7.024l-3.482,3.587-3.534-3.587v7.024H59.529Zm14.146,0h9.237v3.19H79.629v9.583H76.978v-9.583h-3.3Z" transform="translate(-56.312 -136.62)" fill="#d63434"/>
        <path id="Path_1" data-name="Path 1" d="M9.413,0H7.388V-5.446q0-.882.076-1.949H7.414a9.589,9.589,0,0,1-.286,1.206L5,0H3.319L1.148-6.125A11.92,11.92,0,0,1,.863-7.4H.806Q.888-6.049.888-5.034V0H-.959V-9.1h3l1.86,5.4a7.6,7.6,0,0,1,.324,1.3h.038A13.1,13.1,0,0,1,4.627-3.72L6.487-9.1H9.413Zm8.049,0h-2V-.99h-.032A2.268,2.268,0,0,1,13.444.159q-2.26,0-2.26-2.736V-6.5h2v3.745q0,1.377,1.092,1.377a1.08,1.08,0,0,0,.863-.378,1.523,1.523,0,0,0,.324-1.025V-6.5h2Zm5.929-4.691a1.74,1.74,0,0,0-.844-.2,1.216,1.216,0,0,0-1.022.479,2.091,2.091,0,0,0-.368,1.3V0H19.15V-6.5h2.006v1.206h.025A1.735,1.735,0,0,1,22.9-6.614a1.292,1.292,0,0,1,.5.076ZM26.355-.755H26.33V2.99H24.324V-6.5H26.33v.978h.025a2.358,2.358,0,0,1,2.088-1.136,2.35,2.35,0,0,1,1.952.866,3.689,3.689,0,0,1,.689,2.358,4,4,0,0,1-.8,2.609,2.618,2.618,0,0,1-2.136.984A2.024,2.024,0,0,1,26.355-.755ZM26.3-3.421V-2.9a1.655,1.655,0,0,0,.355,1.1,1.157,1.157,0,0,0,.933.425,1.23,1.23,0,0,0,1.063-.53,2.559,2.559,0,0,0,.378-1.5q0-1.714-1.333-1.714a1.252,1.252,0,0,0-1.006.467A1.861,1.861,0,0,0,26.3-3.421ZM38.625,0h-2V-3.694q0-1.428-1.041-1.428a1.066,1.066,0,0,0-.863.4,1.542,1.542,0,0,0-.33,1.016V0H32.385V-9.623h2.006v4.088h.025a2.279,2.279,0,0,1,2-1.124q2.209,0,2.209,2.666ZM5.433,7.567h-2.6V15H.78V7.567H-1.8V5.9H5.433Zm4.291,2.742a1.74,1.74,0,0,0-.844-.2,1.216,1.216,0,0,0-1.022.479,2.091,2.091,0,0,0-.368,1.3V15H5.484V8.5H7.49V9.706h.025a1.735,1.735,0,0,1,1.714-1.32,1.292,1.292,0,0,1,.5.076ZM16.065,15h-1.9v-.933h-.025a2.118,2.118,0,0,1-1.936,1.092,2.025,2.025,0,0,1-1.489-.536,1.922,1.922,0,0,1-.543-1.431q0-1.892,2.241-2.184l1.765-.235q0-1.066-1.155-1.066a3.943,3.943,0,0,0-2.209.692V8.887a4.97,4.97,0,0,1,1.146-.381,6.023,6.023,0,0,1,1.323-.165,2.455,2.455,0,0,1,2.78,2.774ZM14.18,12.359v-.438L13,12.074q-.978.127-.978.882a.729.729,0,0,0,.238.562.915.915,0,0,0,.644.219,1.188,1.188,0,0,0,.92-.39A1.41,1.41,0,0,0,14.18,12.359Zm8.4,2.406a3.966,3.966,0,0,1-1.961.394,3.317,3.317,0,0,1-2.425-.908,3.135,3.135,0,0,1-.927-2.342A3.454,3.454,0,0,1,18.259,9.3a3.671,3.671,0,0,1,2.656-.955,3.409,3.409,0,0,1,1.663.3v1.7a2.287,2.287,0,0,0-1.4-.47,1.848,1.848,0,0,0-1.368.5,1.883,1.883,0,0,0-.5,1.393,1.852,1.852,0,0,0,.482,1.355,1.773,1.773,0,0,0,1.327.492,2.647,2.647,0,0,0,1.466-.47ZM30.4,15H28l-2.076-3.225H25.9V15H23.892V5.377H25.9V11.5h.025l1.936-3h2.38l-2.33,3.053Zm6.411-2.679h-4.24q.1,1.416,1.784,1.416a3.482,3.482,0,0,0,1.885-.508v1.447a4.953,4.953,0,0,1-2.342.482,3.3,3.3,0,0,1-2.444-.873,3.3,3.3,0,0,1-.87-2.434,3.478,3.478,0,0,1,.939-2.564,3.13,3.13,0,0,1,2.311-.946,2.841,2.841,0,0,1,2.2.844,3.251,3.251,0,0,1,.778,2.292Zm-1.86-1.231q0-1.4-1.13-1.4a1.079,1.079,0,0,0-.835.4,1.815,1.815,0,0,0-.428,1Zm7.293-.781a1.74,1.74,0,0,0-.844-.2,1.216,1.216,0,0,0-1.022.479,2.091,2.091,0,0,0-.368,1.3V15H38.009V8.5h2.006V9.706h.025a1.735,1.735,0,0,1,1.714-1.32,1.292,1.292,0,0,1,.5.076Z" transform="translate(36.312 12.714)" fill="#d63434"/>
      </g>
    </g>
  </g>
</svg>
